<svg width="131" height="36" viewBox="0 0 131 36" fill="none" xmlns="http://www.w3.org/2000/svg">
<path d="M49.8415 30.3915C47.554 30.427 45.2938 29.874 43.2644 28.7824C41.3802 27.7595 39.8045 26.2208 38.7097 24.3345C37.6277 22.373 37.0586 20.1541 37.0586 17.8963C37.0586 15.6384 37.6277 13.4195 38.7097 11.458C39.8111 9.56557 41.3994 8.02633 43.2974 7.01185C45.3519 5.9189 47.6351 5.36565 49.9455 5.40101C51.8659 5.37526 53.7725 5.74036 55.5564 6.47547C57.037 7.09691 58.3708 8.0407 59.4668 9.24262L56.5004 12.072C55.6772 11.2204 54.6975 10.5475 53.6191 10.0928C52.5406 9.6381 51.385 9.4108 50.2203 9.42426C48.7145 9.39793 47.2262 9.76112 45.8908 10.4808C44.6411 11.1678 43.6075 12.2099 42.9121 13.4842C42.2158 14.8362 41.8517 16.3442 41.8517 17.8758C41.8517 19.4074 42.2158 20.9155 42.9121 22.2674C43.6059 23.539 44.6304 24.5844 45.8694 25.2853C47.184 26.0167 48.6581 26.3876 50.151 26.3623C51.7414 26.3848 53.3122 25.9974 54.7214 25.235L54.9549 25.1054V17.9602H59.1944V27.4342C57.9008 28.3913 56.4623 29.1195 54.9376 29.5891C53.2869 30.1167 51.5694 30.3871 49.8415 30.3915Z" fill="#763BC1"/>
<path d="M100.692 30.3915C98.4041 30.427 96.1439 29.874 94.1145 28.7824C92.2303 27.7595 90.6546 26.2208 89.5598 24.3345C88.4778 22.373 87.9087 20.1541 87.9087 17.8963C87.9087 15.6384 88.4778 13.4195 89.5598 11.458C90.6612 9.56557 92.2495 8.02633 94.1475 7.01185C96.202 5.9189 98.4852 5.36565 100.796 5.40101C102.716 5.37526 104.623 5.74036 106.407 6.47547C107.887 7.09691 109.221 8.0407 110.317 9.24262L107.35 12.072C106.527 11.2204 105.548 10.5475 104.469 10.0928C103.391 9.6381 102.235 9.4108 101.07 9.42426C99.5646 9.39793 98.0763 9.76112 96.7409 10.4808C95.4912 11.1678 94.4576 12.2099 93.7622 13.4842C93.0659 14.8362 92.7018 16.3442 92.7018 17.8758C92.7018 19.4074 93.0659 20.9155 93.7622 22.2674C94.456 23.539 95.4805 24.5844 96.7195 25.2853C98.0341 26.0167 99.5082 26.3876 101.001 26.3623C102.592 26.3848 104.162 25.9974 105.571 25.235L105.805 25.1054V17.9602H110.045V27.4342C108.751 28.3913 107.312 29.1195 105.788 29.5891C104.137 30.1167 102.419 30.3871 100.692 30.3915Z" fill="#763BC1"/>
<path d="M61.1909 30.3931L71.9623 5.39941H77.102L87.9083 30.3931H82.8284L74.4997 9.58387L66.1299 30.3931H61.1909Z" fill="#763BC1"/>
<path d="M112.901 30.3931V5.39941H131V9.27034H117.772V15.8482H129.246V19.5708H117.772V26.5195H131V30.3905L112.901 30.3931Z" fill="#763BC1"/>
<path d="M37.6869 27.1957C35.7896 24.5402 34.7697 21.3582 34.7697 18.0946C34.7697 14.8309 35.7896 11.6489 37.6869 8.99341L37.6955 8.99944C38.1212 8.3996 38.3245 7.67007 38.2702 6.93651C38.2159 6.20295 37.9075 5.51129 37.3981 4.98063L33.681 1.28242C33.1474 0.685035 32.4069 0.312525 31.6092 0.240209C30.8115 0.167894 30.0161 0.401158 29.3838 0.892858C28.3522 1.69029 27.2744 2.42616 26.1561 3.09662C24.632 4.00007 23.0194 4.74515 21.3436 5.3202C12.9517 8.11691 8.53301 6.53626 4.75465 9.02615C3.28789 10.0395 2.08895 11.3938 1.2608 12.9725C0.432637 14.5513 0 16.3075 0 18.0903C0 19.8731 0.432637 21.6292 1.2608 23.208C2.08895 24.7868 3.28789 26.141 4.75465 27.1544C8.53215 29.6486 12.9517 28.0671 21.3436 30.8603C23.0194 31.4354 24.632 32.1804 26.1561 33.0839C27.2744 33.7543 28.3522 34.4902 29.3838 35.2877C30.0161 35.7794 30.8115 36.0126 31.6092 35.9403C32.4069 35.868 33.1474 35.4955 33.681 34.8981L37.3981 31.1999C37.9077 30.6693 38.2161 29.9776 38.2704 29.244C38.3247 28.5104 38.1214 27.7809 37.6955 27.1811L37.6869 27.1957ZM25.7356 23.8793H22.0684L22.0908 17.493C22.0916 17.2545 22.0454 17.0182 21.9549 16.7976C21.8643 16.577 21.7313 16.3764 21.5632 16.2072C21.3951 16.038 21.1954 15.9036 20.9754 15.8116C20.7554 15.7196 20.5194 15.6718 20.2809 15.671L15.8122 15.6521L15.7639 23.8793H12.2123V12.5348H20.792C22.1025 12.5348 23.3593 13.0553 24.2861 13.9819C25.2128 14.9085 25.7336 16.1652 25.7338 17.4758L25.7356 23.8793Z" fill="#763BC1"/>
</svg>
