<svg id="Layer_1" data-name="Layer 1" xmlns="http://www.w3.org/2000/svg" viewBox="0 0 960 366"><path d="M29.75,216.07c0-46,37.6-83.69,83.55-83.73a83.83,83.83,0,1,1-83.55,83.73Z"/><path d="M260.68,180.07h25.18v15.21l.87.59a4.22,4.22,0,0,1,.38-1.23c11.17-14,26.09-18.57,43.34-17.28,12.36.93,22.93,5.62,31,15.25a40.69,40.69,0,0,1,9.76,26.14c.3,23.12.17,46.25.21,69.37v8.19H346v-2.94c0-20.33.08-40.66-.06-61a41.53,41.53,0,0,0-1.53-11.5c-3.12-10.3-10.2-16.61-20.83-18.49-8.84-1.56-17.44-.7-25.11,4.47-8.72,5.89-12.46,14.48-12.5,24.76-.08,20.5,0,41,0,61.5v3.16H260.68Z"/><path d="M480,180.09h25.32V296.26H480.15V281.42a8.18,8.18,0,0,0-1.41,1c-9.44,12-22,16.87-37,16.67-14.37-.19-26.49-5-35.3-16.8a39.85,39.85,0,0,1-8.12-23.65c-.29-19.91-.18-39.82-.23-59.73,0-6.18,0-12.36,0-18.78h25.51v2.92c0,21.18-.12,42.36.1,63.54A36.65,36.65,0,0,0,426,259c3.93,10.33,13.75,16,26.06,15.61,13.38-.37,23.69-7.82,26.77-19.69a40.85,40.85,0,0,0,1.16-10c.11-20.5.05-41,.05-61.51Z"/><path d="M617.7,147.58c-1.76,5.24-3.51,10.42-5.36,15.92l-2.59-1.18c-12-5.44-24.54-7.83-37.56-4.58-13.67,3.41-20.78,15.32-17.34,28.4a19.51,19.51,0,0,0,8.49,12c5.72,3.55,11.79,6.55,17.83,9.57,7.69,3.85,15.76,7,23.19,11.34,8.42,4.87,14.68,12,17.56,21.56,6,19.86-.49,45-27.8,54.12-20.32,6.77-40.41,4.65-59.84-4.07-3.53-1.59-3.46-1.74-2.35-5.43,1.29-4.26,2.57-8.52,3.71-12.32,6.59,2.43,12.86,5.22,19.41,7,10.26,2.84,20.72,3.44,31-.1,9.67-3.34,16-9.82,17.36-20.2,1.38-10.12-1.82-18.52-10.14-24.75-6-4.52-13-7.17-19.81-10.15-7-3.07-14.19-6.11-20.64-10.18-13.12-8.27-20-20.33-18.6-36.13,1.43-16.33,10.41-27.64,25.29-33.66,18.93-7.67,37.92-6.16,56.51,1.85A16.22,16.22,0,0,1,617.7,147.58Z"/><path d="M752.17,240.27c-.23,10.63-1.9,20.94-6.89,30.44-8.63,16.4-22.57,25.29-40.66,27.72-15.06,2-29-1.12-41-10.78-10.13-8.14-15.87-19-18.31-31.6-2.73-14.14-1.81-28,3.88-41.32,10.19-23.77,32.85-33.2,54.93-31.31,28.16,2.41,45.19,23.22,47.53,49.26C751.84,235.21,752,237.74,752.17,240.27Zm-20.61.45a55.22,55.22,0,0,0-4.88-23.07c-3.6-7.78-8.81-14.08-17-17.32-12.21-4.82-31.78-3.09-40.88,17.78-6,13.85-6.36,28.1-1.41,42.37a36.76,36.76,0,0,0,11.13,16.42c14.48,12.13,35,8.42,45.62-8.25C729.46,260.25,731.46,250.9,731.56,240.72Z"/><path d="M208.15,56.09A38.07,38.07,0,1,1,170.06,94,38.15,38.15,0,0,1,208.15,56.09Z"/><path d="M799.42,296.36H779.64V201.07H764.1V185.85h15.43c0-1.61,0-2.93,0-4.24a72.34,72.34,0,0,1,3.35-24.27c6.66-19.84,24.49-26.93,40.75-25.25,4.23.44,8.4,1.61,12.79,2.48-1,5.53-1.86,10.48-2.67,15.07-4.58-.57-8.89-1.47-13.22-1.57-8.8-.2-14.92,4.15-18.22,12.35-2.49,6.21-3.77,17.76-2.72,25.2h26.26v15.22H799.42Z"/><path d="M851.28,200.87h-17V185.8h17v-5c0-6.53,0-13.05,0-19.57,0-1.51.36-2.22,1.94-2.61,5.34-1.31,10.63-2.82,15.94-4.24a14.88,14.88,0,0,1,1.77-.21v31.51h28.56v15.13H871.07c-.07,1.15-.16,2-.16,2.93,0,18.72-.06,37.45,0,56.17a51.66,51.66,0,0,0,1,10.83c1.77,8,6.48,11.57,14.72,11.35,3.53-.1,7-.64,10.91-1,.27,4.5.6,9.12.77,13.74,0,.48-.79,1.28-1.36,1.43-9.3,2.52-18.68,3.5-28,.29-10.27-3.53-15.13-11.5-16.69-21.73a93.09,93.09,0,0,1-1-13.65c-.11-19-.05-38-.05-56.94Z"/></svg>